# xmcd
#
# Track frame offsets:
#	150
#	21540
#	38270
#	56637
#	75265
#	89040
#	105032
#	121670
#	130492
#	147840
#
# Disc length: 2158 seconds
#
# Revision: 0
# Processed by: cddbd v1.4PL0 Copyright (c) Steve Scherf et al.
# Submitted via: dBpowerAMP V4.0
#
DISCID=75086c0a
DTITLE=古巨基 - New Pattern
DYEAR=2000
DGENRE=Pop
TTITLE0=神蹟
TTITLE1=Love Don't Hurt
TTITLE2=蜜蜂
TTITLE3=亳無保留
TTITLE4=有少少愛
TTITLE5=曇花
TTITLE6=下雨看世界
TTITLE7=Together
TTITLE8=心跳時刻
TTITLE9=拳傾天下
EXTD=
EXTT0=
EXTT1=
EXTT2=
EXTT3=
EXTT4=
EXTT5=
EXTT6=
EXTT7=
EXTT8=
EXTT9=
PLAYORDER=
